<svg viewBox="0 0 335 335" fill="none" xmlns="http://www.w3.org/2000/svg">
<path d="M263.497 187.681C257.828 185.083 252.529 181.742 247.74 177.746C240.203 171.496 231.491 166.818 222.118 163.988C212.745 161.158 202.9 160.232 193.163 161.266C184.653 162.179 176.37 164.579 168.69 168.356C174.264 165.568 180.684 164.989 186.666 166.736C192.648 168.482 197.749 172.425 200.947 177.774C208.294 189.142 218.656 198.245 230.877 204.064C243.098 209.883 256.696 212.19 270.153 210.727C285.538 209.05 300 202.553 311.473 192.165C295.437 196.176 278.512 194.594 263.497 187.681Z" fill="#49A09D"/>
<path d="M158.66 140.334C160.417 148.717 163.625 156.729 168.137 164.011C164.842 158.723 163.647 152.393 164.789 146.268C165.93 140.143 169.326 134.669 174.305 130.925C184.889 122.471 192.919 111.246 197.5 98.4987C202.081 85.7515 203.034 71.9829 200.252 58.7264C197.078 43.5615 189.166 29.7982 177.659 19.4229C183.208 35.0684 183.25 52.1399 177.776 67.8125C175.683 73.7289 172.817 79.3429 169.254 84.5093C163.78 92.6273 159.989 101.761 158.105 111.369C156.222 120.978 156.284 130.867 158.287 140.451L158.66 140.334Z" fill="#273755"/>
<path d="M176.241 187.046C174.483 178.663 171.276 170.65 166.764 163.369C170.059 168.657 171.254 174.987 170.112 181.111C168.97 187.236 165.575 192.711 160.595 196.455C150.011 204.908 141.982 216.134 137.4 228.881C132.819 241.628 131.867 255.397 134.648 268.653C137.823 283.818 145.735 297.582 157.241 307.957C151.693 292.311 151.651 275.24 157.124 259.567C159.218 253.651 162.084 248.037 165.647 242.87C171.121 234.752 174.912 225.619 176.795 216.01C178.679 206.402 178.617 196.513 176.613 186.929L176.241 187.046Z" fill="#273755"/>
<path d="M167.552 160.428C162.86 164.533 156.789 166.713 150.558 166.529C144.327 166.346 138.395 163.813 133.953 159.439C123.98 150.249 111.649 144.013 98.3362 141.428C85.0234 138.843 71.2541 140.011 58.567 144.801C44.0832 150.306 31.7222 160.27 23.2676 173.255C37.8725 165.358 54.734 162.679 71.0672 165.659C77.1946 166.801 83.1558 168.701 88.8131 171.316C97.6693 175.462 107.266 177.791 117.037 178.167C126.808 178.543 136.555 176.958 145.703 173.505C153.716 170.467 161.136 166.052 167.628 160.459L167.552 160.428Z" fill="#49A09D"/>
<circle cx="167.5" cy="167.5" r="163.699" transform="rotate(0.982724 167.5 167.5)" stroke="#000" stroke-width="2"/>
</svg>
