<svg width="300" height="300" viewBox="0 0 300 300" fill="none" xmlns="http://www.w3.org/2000/svg">
<g clip-path="url(#clip0_209_3227)">
<path d="M150 0C120.333 0 91.332 8.79735 66.6645 25.2796C41.9972 41.7617 22.7713 65.1886 11.4181 92.5972C0.0649931 120.006 -2.90551 150.166 2.88227 179.263C8.67008 208.36 22.9562 235.088 43.934 256.066C64.9119 277.044 91.6395 291.33 120.736 297.118C149.833 302.905 179.993 299.935 207.403 288.582C234.811 277.228 258.238 258.003 274.721 233.335C291.203 208.668 300 179.667 300 150C300 110.218 284.197 72.0644 256.066 43.9339C227.935 15.8036 189.782 0 150 0ZM22.2973 150C22.2823 121.344 32.0608 93.5437 50.0117 71.2069C67.9626 48.8703 93.0083 33.3391 120.996 27.1879C148.984 21.0367 178.233 24.635 203.896 37.3862C229.558 50.1375 250.093 71.2759 262.094 97.2975H139.865L162.406 74.7568C163.415 73.7457 163.983 72.3751 163.983 70.9459C163.983 69.5168 163.415 68.1461 162.406 67.1351L153.811 58.5405C152.8 57.5305 151.43 56.9631 150 56.9631C148.571 56.9631 147.2 57.5305 146.189 58.5405L99.081 105.649C98.0708 106.66 97.5038 108.03 97.5038 109.459C97.5038 110.888 98.0708 112.259 99.081 113.27L156.081 170.27H23.919C22.8444 163.567 22.3021 156.789 22.2973 150ZM147.973 275.675C122.837 275.685 98.277 268.158 77.4638 254.065C56.6501 239.973 40.5407 219.964 31.2163 196.621H158.108L137.594 217.135C136.585 218.146 136.017 219.517 136.017 220.946C136.017 222.375 136.585 223.746 137.594 224.757L146.189 233.351C147.2 234.361 148.571 234.928 150 234.928C151.43 234.928 152.8 234.361 153.811 233.351L198.892 188.27C199.902 187.259 200.469 185.888 200.469 184.459C200.469 183.03 199.902 181.66 198.892 180.649L139.865 121.621H270.446C274.718 140.053 274.774 159.211 270.609 177.666C266.444 196.122 258.166 213.399 246.392 228.208C234.618 243.019 219.653 254.979 202.611 263.198C185.57 271.417 166.893 275.682 147.973 275.675Z" fill="url(#paint0_linear_209_3227)"/>
</g>
<defs>
<linearGradient id="paint0_linear_209_3227" x1="398.417" y1="-102.316" x2="40.0452" y2="256.055" gradientUnits="userSpaceOnUse">
<stop stop-color="#480D5B"/>
<stop offset="1" stop-color="#A636CC"/>
</linearGradient>
<clipPath id="clip0_209_3227">
<rect width="300" height="300" fill="white"/>
</clipPath>
</defs>
</svg>
